Coordinates
version=1
nRows=24
nColumns=24
inDegrees=yes

Units are S.I. units (second, meters, Newtons, ...)
Angles are in degrees.

endheader
time	pelvis_tilt	pelvis_list	pelvis_rotation	pelvis_tx	pelvis_ty	pelvis_tz	hip_flexion_r	hip_adduction_r	hip_rotation_r	knee_angle_r	ankle_angle_r	subtalar_angle_r	mtp_angle_r	hip_flexion_l	hip_adduction_l	hip_rotation_l	knee_angle_l	ankle_angle_l	subtalar_angle_l	mtp_angle_l	lumbar_extension	lumbar_bending	lumbar_rotation
      0.88300000	     -3.86236186	     -2.35147629	      0.89845404	     -0.22656450	      1.04698439	      0.34450775	     -2.93643524	      8.34413914	      1.62161466	    -15.19881572	     13.79426786	    -12.83685506	     -3.52311314	     27.60867819	     -0.90781638	     -5.27781975	     -6.11874800	      6.65547307	      6.14411292	     -0.92707546	      6.12406904	      5.53332582	      0.26737099
      0.88716667	     -3.79539212	     -2.31809511	      0.96179666	     -0.22049146	      1.04644004	      0.34420068	     -3.12404782	      8.28582918	      1.28858415	    -15.69780245	     14.02720937	    -12.29561153	     -3.56867391	     27.45810326	     -0.79007812	     -5.47728933	     -6.09229142	      6.65495015	      6.84654481	     -1.00535630	      6.14179158	      5.49873935	      0.32106689
      0.89133333	     -3.80656145	     -2.32954406	      0.89159637	     -0.21460186	      1.04580952	      0.34413346	     -3.19464304	      8.27767130	      1.25216852	    -16.24511260	     14.00522203	    -12.27532575	     -3.57449657	     27.36392090	     -0.77650307	     -5.43183032	     -6.08011975	      6.66156511	      6.93817279	     -1.01376705	      6.16884361	      5.50018292	      0.31936526
      0.89550000	     -3.74299343	     -2.31010866	      0.91567162	     -0.20854375	      1.04530630	      0.34387206	     -3.33184746	      8.22295300	      0.93311590	    -16.82525360	     14.08075251	    -11.76331278	     -3.60535227	     27.21146946	     -0.68947581	     -5.54967761	     -6.18506894	      6.66603945	      7.46729750	     -1.06840929	      6.12149503	      5.51315563	      0.36380683
      0.89966667	     -3.73631361	     -2.31098522	      0.84369839	     -0.20258384	      1.04476000	      0.34386331	     -3.38769940	      8.19861925	      0.88610948	    -17.44708083	     14.04615529	    -11.73892045	     -3.60867057	     27.08997671	     -0.67285109	     -5.47807506	     -6.29591753	      6.64729500	      7.55170238	     -1.07369050	      6.17211240	      5.48879884	      0.36952218
      0.90383333	     -3.68114879	     -2.28734392	      0.87067921	     -0.19647876	      1.04429311	      0.34356777	     -3.47474964	      8.12620122	      0.53162072	    -18.10466890	     14.01465111	    -11.22557102	     -3.62065945	     26.93552783	     -0.57652172	     -5.51261660	     -6.50024274	      6.54028512	      7.95307443	     -1.10396153	      6.13134945	      5.47481069	      0.42338210
      0.90800000	     -3.65450688	     -2.28107945	      0.78852944	     -0.19045470	      1.04383846	      0.34358815	     -3.50929447	      8.08395325	      0.46132573	    -18.81448403	     13.96040070	    -11.18398850	     -3.62144945	     26.77949529	     -0.55963074	     -5.42627325	     -6.70331177	      6.50457233	      8.03161685	     -1.10649199	      6.19031355	      5.44356329	      0.43147382
      0.91216667	     -3.61449986	     -2.25316268	      0.82396817	     -0.18431611	      1.04340319	      0.34326431	     -3.52810778	      7.99162488	      0.06416969	    -19.56888812	     13.82887815	    -10.57120775	     -3.61593825	     26.63019800	     -0.45212046	     -5.40379410	     -6.97716572	      6.30582189	      8.32402293	     -1.11954000	      6.15102892	      5.42515814	      0.49048968
      0.91633333	     -3.57590008	     -2.23069540	      0.73643676	     -0.17825054	      1.04303578	      0.34329116	     -3.52298024	      7.91757362	     -0.04280888	    -20.38252622	     13.75180070	    -10.51348000	     -3.61393362	     26.44440130	     -0.42333686	     -5.31147414	     -7.23337720	      6.24912963	      8.39065811	     -1.11967620	      6.21119502	      5.38515581	      0.50037962
      0.92050000	     -3.51362225	     -2.16149940	      0.74876338	     -0.17200691	      1.04273555	      0.34289306	     -3.51987741	      7.74986762	     -0.46542666	    -21.23159173	     13.55338967	     -9.68247844	     -3.58103136	     26.21990845	     -0.26871317	     -5.16600556	     -7.48479656	      5.92075159	      8.52623217	     -1.11641704	      6.15461812	      5.36231129	      0.57260486
      0.92466667	     -3.45273147	     -2.11129448	      0.72636754	     -0.16587240	      1.04246123	      0.34263382	     -3.47367892	      7.60831823	     -0.79278058	    -22.15777334	     13.39453229	     -9.16253468	     -3.53444626	     25.99935183	     -0.15863404	     -5.02370437	     -7.76403565	      5.67037467	      8.41805510	     -1.10008577	      6.12918804	      5.31080663	      0.62815074
      0.92883333	     -3.41267749	     -2.07416798	      0.72448454	     -0.15975258	      1.04217602	      0.34243818	     -3.37489839	      7.48650304	     -1.12856412	    -23.12820941	     13.12168218	     -8.83736550	     -3.50013059	     25.81687443	     -0.06647964	     -4.95066473	     -8.09152177	      5.43806899	      8.33450209	     -1.08568433	      6.11921417	      5.22508610	      0.66393426
      0.93300000	     -3.37412672	     -2.00968099	      0.70724831	     -0.15358897	      1.04194340	      0.34216239	     -3.24213922	      7.31207861	     -1.47700909	    -24.15636093	     12.75030230	     -8.37483606	     -3.45095154	     25.60444181	      0.06038929	     -4.78620302	     -8.37495065	      5.11035676	      8.19296122	     -1.06459835	      6.12108137	      5.15407086	      0.70032440
      0.93716667	     -3.32942715	     -1.93797891	      0.69625545	     -0.14743737	      1.04176739	      0.34184348	     -3.07922768	      7.11807009	     -1.84061843	    -25.24705493	     12.35306936	     -7.87229692	     -3.38368953	     25.37796442	      0.20050798	     -4.59017631	     -8.65141262	      4.75304679	      7.92769573	     -1.03476802	      6.12146693	      5.07234021	      0.73525427
      0.94133333	     -3.28528239	     -1.85520430	      0.68527012	     -0.14129130	      1.04163221	      0.34149344	     -2.87846208	      6.90040270	     -2.20814753	    -26.40130848	     11.89981280	     -7.34743378	     -3.29172445	     25.13971413	      0.35616459	     -4.34143417	     -8.91008534	      4.35771353	      7.53212871	     -0.99309673	      6.13203772	      4.98209779	      0.76774121
      0.94550000	     -3.24101305	     -1.73405808	      0.64561290	     -0.13509247	      1.04157343	      0.34102395	     -2.64271805	      6.60913694	     -2.57424816	    -27.62445196	     11.44404783	     -6.79195625	     -3.12577397	     24.85883848	      0.56012736	     -3.94927960	     -9.09680562	      3.90002107	      6.89200864	     -0.91515985	      6.20179483	      4.94816817	      0.78515153
      0.94966667	     -3.20827888	     -1.66212865	      0.66806174	     -0.12909456	      1.04147062	      0.34074193	     -2.34088351	      6.40255558	     -2.95796742	    -28.91346252	     10.92610624	     -6.46049025	     -3.03704362	     24.67757630	      0.69557531	     -3.84194159	     -9.44754081	      3.62731001	      6.62192873	     -0.87415777	      6.11680622	      4.76058276	      0.80237853
      0.95383333	     -3.17390130	     -1.53743184	      0.65189186	     -0.12298594	      1.04145602	      0.34036189	     -2.01207861	      6.10728195	     -3.32013727	    -30.24801642	     10.19495253	     -5.98931672	     -2.92388650	     24.44255790	      0.88802327	     -3.60331071	     -9.70616981	      3.24292755	      6.21560790	     -0.82635766	      6.13056440	      4.63052048	      0.81665256
      0.95800000	     -3.18055338	     -1.39739080	      0.66740679	     -0.11687473	      1.04141663	      0.33961309	     -1.59531465	      5.74892882	     -3.76718336	    -31.67392370	      9.65411987	     -5.52932191	     -2.54713197	     24.22494239	      1.15340175	     -3.07040167	     -9.90703161	      2.68858932	      5.01142298	     -0.66611306	      6.24861104	      4.58237932	      0.79687915
      0.96216667	     -3.12003297	     -1.27642625	      0.65533103	     -0.11094401	      1.04149510	      0.33936883	     -1.20644968	      5.46164222	     -4.06371797	    -33.13141983	      8.86440977	     -5.17726893	     -2.44091008	     24.00019136	      1.31493338	     -2.94757541	    -10.24347056	      2.48136418	      4.90697733	     -0.61999762	      6.15060557	      4.36806012	      0.79873348
      0.96633333	     -3.07586016	     -1.11995790	      0.64554302	     -0.10495523	      1.04160186	      0.33895834	     -0.76812641	      5.10585327	     -4.38690508	    -34.63148652	      7.91486323	     -4.79199850	     -2.30011878	     23.77404319	      1.53086165	     -2.74479416	    -10.54985812	      2.20701292	      4.54597668	     -0.56558297	      6.13453463	      4.18817302	      0.79907104
      0.97050000	     -3.04514663	     -0.96334529	      0.64216324	     -0.09905070	      1.04170899	      0.33849930	     -0.26970105	      4.74035777	     -4.69657467	    -36.19771640	      7.00291016	     -4.48336834	     -2.15273818	     23.57258174	      1.75165027	     -2.49992271	    -10.87217254	      1.95693094	      4.10309183	     -0.51251338	      6.09610423	      3.99662253	      0.79338052
      0.97466667	     -3.01124190	     -0.79092960	      0.63685181	     -0.09315821	      1.04185694	      0.33803281	      0.25729664	      4.35099432	     -4.98344460	    -37.80292334	      6.05991426	     -4.21012777	     -2.00933273	     23.36784937	      1.98310662	     -2.26541884	    -11.19814846	      1.74109402	      3.67563640	     -0.46345734	      6.06730735	      3.80851874	      0.78227322
      0.97883333	     -2.97971020	     -0.58132429	      0.66427682	     -0.08714072	      1.04204394	      0.33737501	      0.80033756	      3.89583287	     -5.31740434	    -39.41551537	      4.93734994	     -3.99201070	     -1.75645807	     23.15316490	      2.27893991	     -2.02126090	    -11.50723562	      1.47699509	      2.97744236	     -0.38221768	      6.21801033	      3.70968797	      0.74752553
